<svg xmlns="http://www.w3.org/2000/svg" xmlns:xlink="http://www.w3.org/1999/xlink" version="1.1" x="0px" y="0px" viewBox="0 0 91 113.75" style="enable-background:new 0 0 91 91;" xml:space="preserve"><g><path d="M73.4,22.2c-3.9,0.6-7.6,2.7-10.3,5.4c-0.7,0.7-1.3,1.5-1.8,2.3c-2.8-6-9.1-9.2-16-8c-6.8,1.2-11.5,5.9-15.5,11.2   c-3-6.2-7.4-12-14.8-12.3C6.4,20.7,1,29,1.1,36.8c0.1,8.3,4.6,16.5,9.8,22.7c2.5,3,5.5,5.8,8.8,8c3.3,2.3,6.9,3.6,10.6,5.1   c0.2,0.1,0.4,0.1,0.6,0c0.8,0.9,2.1,1.4,3.5,0.4c7.3-5,14.4-10.5,20-17.4c4.9-6,9.5-13.6,8.2-21.6c3.1-3.5,6.9-6.3,11.6-6.6   c7.6-0.5,11,6.6,9.2,13.2C80.3,52,69,59.4,60.1,66.5c-1.3-1.4-2.6-2.8-3.9-4.2c-2.6-2.8-6.9,1.4-4.2,4.2c1.9,2,3.9,4,5.8,6   c1.1,1.2,3,1,4.1,0c6.2-5.5,13.4-10.1,19-16.3c5.4-6,10.2-14.2,8.7-22.6C88.2,26,81.2,21,73.4,22.2z M56.8,38.3   c-0.6,6.5-5.5,12.4-9.8,16.9c-4.7,4.9-10.1,9-15.7,12.8c-0.9,0.6-1.3,1.5-1.3,2.4c-5-2.3-9.7-6.5-13.3-10.5   c-4-4.5-7.1-9.8-8.8-15.6C6.2,38.7,5.4,28.8,12.9,27c7.4-1.7,11.3,7.7,13.4,13c1,2.4,4,3,5.5,0.7C35.3,35.6,39.4,29.4,46,28   C52.8,26.5,57.5,31.7,56.8,38.3z"/></g><text x="0" y="106" fill="#000000" font-size="5px" font-weight="bold" font-family="'Helvetica Neue', Helvetica, Arial-Unicode, Arial, Sans-serif">Created by BomSymbols</text><text x="0" y="111" fill="#000000" font-size="5px" font-weight="bold" font-family="'Helvetica Neue', Helvetica, Arial-Unicode, Arial, Sans-serif">from the Noun Project</text></svg>